<?xml version="1.0" standalone="no"?>
<!DOCTYPE svg PUBLIC "-//W3C//DTD SVG 20010904//EN"
 "http://www.w3.org/TR/2001/REC-SVG-20010904/DTD/svg10.dtd">
<svg version="1.0" xmlns="http://www.w3.org/2000/svg"
 width="93.000000pt" height="93.000000pt" viewBox="0 0 93.000000 93.000000"
 preserveAspectRatio="xMidYMid meet">

<g transform="translate(0.000000,93.000000) scale(0.100000,-0.100000)"
fill="#000000" stroke="none">
<path d="M22 478 c3 -135 4 -143 23 -143 18 0 20 8 25 94 l5 95 34 -85 c37
-91 56 -119 70 -104 4 6 24 49 42 97 19 49 37 88 41 88 4 0 9 -42 10 -92 3
-79 6 -93 21 -96 16 -3 17 9 17 142 l0 146 -29 0 c-27 0 -31 -5 -67 -101 -21
-55 -41 -102 -45 -105 -4 -2 -26 43 -49 101 -40 100 -44 105 -71 105 l-30 0 3
-142z"/>
<path d="M441 607 c-89 -46 -93 -204 -7 -259 70 -43 167 2 186 87 28 124 -77
225 -179 172z m106 -51 c25 -21 28 -31 28 -81 0 -50 -3 -60 -29 -82 -23 -19
-36 -24 -60 -19 -47 9 -66 39 -66 103 0 44 5 58 25 78 31 32 66 32 102 1z"/>
<path d="M724 543 c-15 -43 -38 -106 -50 -141 -19 -52 -21 -64 -9 -68 20 -8
33 3 50 42 14 34 15 35 66 32 48 -3 53 -5 62 -33 10 -31 23 -45 45 -45 18 0
16 10 -35 156 -45 127 -49 134 -74 134 -25 0 -29 -7 -55 -77z m77 -38 c9 -30
14 -57 11 -60 -7 -7 -72 -6 -72 1 0 17 32 114 38 114 4 0 14 -25 23 -55z"/>
</g>
</svg>
